<?xml version="1.0" encoding="UTF-8" standalone="no"?>
<svg
   xmlns:dc="http://purl.org/dc/elements/1.1/"
   xmlns:cc="http://creativecommons.org/ns#"
   xmlns:rdf="http://www.w3.org/1999/02/22-rdf-syntax-ns#"
   xmlns:svg="http://www.w3.org/2000/svg"
   xmlns="http://www.w3.org/2000/svg"
   width="33.112839mm"
   height="13.032281mm"
   viewBox="0 0 5.2207909 13.027893"
   version="1.1"
   id="svg8">
  <defs
     id="defs2" />
  <metadata
     id="metadata5">
    <rdf:RDF>
      <cc:Work
         rdf:about="">
        <dc:format>image/svg+xml</dc:format>
        <dc:type
           rdf:resource="http://purl.org/dc/dcmitype/StillImage" />
        <dc:title></dc:title>
      </cc:Work>
    </rdf:RDF>
  </metadata>
  <g
     transform="translate(-1.284946e-7,1.1987305e-6)"
     id="g5043">
    <path
       style="opacity:1;fill:#ffffff;fill-opacity:1;stroke:none;stroke-width:17.83403587;stroke-linecap:round;stroke-linejoin:round;stroke-miterlimit:4;stroke-dasharray:none;stroke-dashoffset:0;stroke-opacity:1"
       d="m 80.671875,38.292969 v 9.607422 l 0.02148,0.01758 -0.0098,-1.320313 c 0,0 1.365501,0.164063 2.121094,0.164063 1.862611,0 3.430557,-0.353223 4.707031,-1.056641 1.28948,-0.690336 2.208815,-1.562155 2.755859,-2.617187 0.52122,-1.005126 0.791176,-2.59605 0.81836,-4.771485 0,-6.2e-5 5e-6,-0.02307 0,-0.02344 h -6.519532 l -1.720703,0.417969 -1.626953,-0.417969 z m 13.164063,0 c -9.65e-4,0.0013 -0.01758,0.02915 -0.01758,0.0293 0,2.123978 -0.342453,3.741911 -0.757812,4.84375 -0.716386,1.953766 -1.961005,3.458639 -3.732422,4.513672 -1.720429,1.024663 -3.781566,1.546676 -6.177734,1.576171 h 42 v -10.96289 z"
       transform="matrix(0.26449426,0,0,0.26449426,-13.94045,0)"
       id="rect3724" />
    <path
       style="opacity:1;fill:#ffffff;fill-opacity:1;stroke:none;stroke-width:17.83403587;stroke-linecap:round;stroke-linejoin:round;stroke-miterlimit:4;stroke-dasharray:none;stroke-dashoffset:0;stroke-opacity:1"
       d="m 83.357422,19.158203 c 1.318085,0.09258 2.586039,0.414175 3.736328,0.972656 1.380673,0.651243 2.7079,1.731267 3.984375,3.242188 v -3.691406 h 2.755859 l -0.01172,11.109375 h 4.923828 c -0.0037,-0.133749 -0.0078,-0.266963 -0.0078,-0.402344 0,-2.943693 0.975883,-5.497992 2.929688,-7.660156 2.13,-2.362358 4.81939,-3.549254 8.0625,-3.570313 z m 26.544918,0 c 3.23011,0.02104 5.91111,1.201417 8.04102,3.550781 1.95377,2.162202 2.93164,4.722989 2.93164,7.679688 0,0.134974 -0.002,0.268692 -0.008,0.402344 h 4.2832 V 19.158203 Z m -26.894528,2.613281 c -0.808583,0 -2.3326,0.30792 -2.335937,0.308594 v 8.710938 h 10.525391 c 0.0077,-0.252002 0.01953,-0.51343 0.01953,-0.65625 0,-1.602115 -0.353221,-3.028873 -1.056641,-4.279297 -0.70338,-1.26343 -1.698801,-2.260805 -2.988281,-2.990235 -1.289518,-0.729429 -2.677238,-1.09375 -4.162109,-1.09375 z m 26.808598,0.05859 c -2.2664,0 -4.21364,0.841222 -5.8418,2.521484 -1.62813,1.680264 -2.44336,3.712099 -2.44336,6.095704 0,0.115314 0.002,0.229569 0.008,0.34375 h 16.55274 c 0.004,-0.114249 0.008,-0.228409 0.008,-0.34375 0,-2.383605 -0.81977,-4.41544 -2.46094,-6.095704 -1.62816,-1.680262 -3.56891,-2.521484 -5.82226,-2.521484 z"
       transform="matrix(0.26449426,0,0,0.26449426,-13.94045,0)"
       id="rect3726" />
    <rect
       y="-19.161242"
       x="-1.1987305e-006"
       height="11.764509"
       width="3.0768716"
       id="rect3728"
       style="opacity:1;fill:#ffffff;fill-opacity:1;stroke:none;stroke-width:4.71700001;stroke-linecap:round;stroke-linejoin:round;stroke-miterlimit:4;stroke-dasharray:none;stroke-dashoffset:0;stroke-opacity:1"
       transform="rotate(90)" />
    <path
       id="path3730"
       style="font-style:normal;font-variant:normal;font-weight:normal;font-stretch:normal;font-size:10.58333302px;line-height:1.25;font-family:'Century Gothic';-inkscape-font-specification:'Century Gothic, Normal';font-variant-ligatures:normal;font-variant-caps:normal;font-variant-numeric:normal;font-feature-settings:normal;text-align:start;letter-spacing:0px;word-spacing:0px;writing-mode:lr-tb;text-anchor:start;fill:#ffffff;fill-opacity:1;stroke:none;stroke-width:0.26458332"
       d="m -6.509379,4.64002 -0.599447,0.45992 q -0.496093,-0.64595 -1.193725,-0.97668 -0.692464,-0.3359 -1.524455,-0.3359 -0.909505,0 -1.684651,0.43925 -0.775147,0.43408 -1.204061,1.17305 -0.423747,0.73381 -0.423747,1.65365 0,1.3901 0.950846,2.32027 0.956014,0.93018 2.408122,0.93018 1.596802,0 2.671671,-1.25057 l 0.599447,0.45475 q -0.568441,0.72347 -1.421102,1.12138 -0.847493,0.39274 -1.896525,0.39274 -1.99471,0 -3.147094,-1.32808 -0.96635,-1.12138 -0.96635,-2.70785 0,-1.66915 1.167888,-2.80603 1.173055,-1.14205 2.935221,-1.14205 1.064534,0 1.922363,0.42375 0.857829,0.41858 1.405599,1.17822 z" />
    <path
       id="path3732"
       style="font-style:normal;font-variant:normal;font-weight:normal;font-stretch:normal;font-size:10.58333302px;line-height:1.25;font-family:'Century Gothic';-inkscape-font-specification:'Century Gothic, Normal';font-variant-ligatures:normal;font-variant-caps:normal;font-variant-numeric:normal;font-feature-settings:normal;text-align:start;letter-spacing:0px;word-spacing:0px;writing-mode:lr-tb;text-anchor:start;fill:#ffffff;fill-opacity:1;stroke:none;stroke-width:0.26458332"
       d="m 0.492777,5.20846 v 5.6224 H -0.220357 V 9.86451 q -0.454753,0.55294 -1.023194,0.83199 -0.563273,0.27905 -1.235066,0.27905 -1.193726,0 -2.041219,-0.863 -0.842326,-0.86816 -0.842326,-2.10839 0,-1.2144 0.852661,-2.0774 0.852661,-0.86299 2.051554,-0.86299 0.692464,0 1.25057,0.29455 0.563273,0.29456 0.98702,0.88367 V 5.20846 Z m -2.89388,0.55294 q -0.604614,0 -1.116211,0.29972 -0.511596,0.29456 -0.816487,0.83199 -0.299724,0.53744 -0.299724,1.13688 0,0.59428 0.304891,1.13689 0.304891,0.5426 0.816488,0.84749 0.516764,0.29972 1.105876,0.29972 0.594278,0 1.126546,-0.29972 0.532267,-0.29972 0.816487,-0.81132 0.289388,-0.5116 0.289388,-1.15239 0,-0.97668 -0.645955,-1.63297 Q -1.460592,5.7614 -2.401103,5.7614 Z" />
    <path
       id="path3734"
       style="font-style:normal;font-variant:normal;font-weight:normal;font-stretch:normal;font-size:10.58333302px;line-height:1.25;font-family:'Century Gothic';-inkscape-font-specification:'Century Gothic, Normal';font-variant-ligatures:normal;font-variant-caps:normal;font-variant-numeric:normal;font-feature-settings:normal;text-align:start;letter-spacing:0px;word-spacing:0px;writing-mode:lr-tb;text-anchor:start;fill:#ffffff;fill-opacity:1;stroke:none;stroke-width:0.26458332"
       d="M 1.851867,5.20846 H 2.59084 V 6.03012 Q 2.921569,5.54436 3.288472,5.30665 3.655376,5.06377 4.053286,5.06377 q 0.29972,0 0.64079,0.1912 l -0.37724,0.60978 q -0.22738,-0.0982 -0.38241,-0.0982 -0.36173,0 -0.69763,0.29972 Q 2.900899,6.36083 2.725199,6.98611 2.59084,7.4667 2.59084,8.92914 v 1.9017 H 1.851867 Z" />
    <path
       style="font-style:normal;font-variant:normal;font-weight:normal;font-stretch:normal;font-size:10.58333302px;line-height:1.25;font-family:'Century Gothic';-inkscape-font-specification:'Century Gothic, Normal';font-variant-ligatures:normal;font-variant-caps:normal;font-variant-numeric:normal;font-feature-settings:normal;text-align:start;letter-spacing:0px;word-spacing:0px;writing-mode:lr-tb;text-anchor:start;fill:#ffffff;fill-opacity:1;stroke:none;stroke-width:0.26458332"
       d="M 7.3976469,5.1051299 C 7.0868468,5.1658752 6.7680498,5.2902883 6.4767504,5.4567438 6.0219972,5.7185706 5.6657885,6.0747793 5.4074085,6.5260859 5.1490312,6.9739458 5.0194491,7.4580084 5.0194491,7.9782213 c 0,0.5202067 0.1244176,0.9973853 0.3724617,1.431472 0.2480466,0.43408 0.5990908,0.7804827 1.0538443,1.0388627 0.4547465,0.25494 0.9405347,0.382277 1.4573015,0.382277 0.440973,0 0.8579252,-0.0912 1.250665,-0.273793 0.3927402,-0.186033 0.7253695,-0.451552 0.9975364,-0.7960653 v 0.01085 c 8.7e-5,-0.003 9.78e-4,-0.00524 10e-4,-0.00827 0.0087,-0.5589602 0.03012,-1.5510723 0.03151,-1.6184774 l -0.001,-5.29e-4 c 4e-5,-6.083e-4 -0.002,-0.00193 -0.0021,-0.00259 C 10.147768,8.7150211 9.9477645,9.184952 9.57729,9.5491505 9.17421,9.9487837 8.6402432,10.148912 7.9753432,10.148912 7.3173299,10.148912 6.7816439,9.9470644 6.3682306,9.5439844 5.9548564,9.1409134 5.7483612,8.6310359 5.7483612,8.0143625 c 0,-0.40652 0.099802,-0.7838961 0.2996225,-1.1318494 0.1998133,-0.3514 0.475661,-0.6250053 0.8270612,-0.8213785 0.1682493,-0.09567 0.3432723,-0.1671278 0.5248558,-0.2169681 -8.5e-6,-6.3e-6 -0.00156,-0.00103 -0.00156,-0.00103 z M 5.0917717,11.275101 c 0.2032575,0.440973 0.4257582,0.775322 0.6669183,1.002702 0.2411531,0.23082 0.5526219,0.413226 0.9350284,0.547586 0.2206232,0.07879 0.4591859,0.132602 0.7113449,0.166342 l -0.00517,-0.663819 c 0,0 0.00508,-0.0035 0.00517,-0.0036 C 7.1433206,12.281363 6.9071817,12.209943 6.7040501,12.102163 6.3664303,11.923016 6.0911056,11.647175 5.8775056,11.275101 Z"
       id="path3736" />
    <path
       style="font-style:normal;font-variant:normal;font-weight:normal;font-stretch:normal;font-size:10.58333302px;line-height:1.25;font-family:'Century Gothic';-inkscape-font-specification:'Century Gothic, Normal';font-variant-ligatures:normal;font-variant-caps:normal;font-variant-numeric:normal;font-feature-settings:normal;text-align:start;letter-spacing:0px;word-spacing:0px;writing-mode:lr-tb;text-anchor:start;fill:#ffffff;fill-opacity:1;stroke:none;stroke-width:0.26458332"
       d="m 12.176292,8.144047 c 0.02434,0.7398375 0.293297,1.3917598 0.81208,1.953228 0.547773,0.585667 1.252097,0.878204 2.11337,0.878204 0.857829,0 1.558715,-0.292537 2.103041,-0.878204 0.522062,-0.5614682 0.792748,-1.2133905 0.817245,-1.953228 h -0.735109 c -0.01412,0.3708442 -0.10772,0.7195283 -0.288772,1.0435124 -0.196368,0.3513999 -0.461376,0.6232929 -0.795551,0.8162126 -0.334178,0.18948 -0.701227,0.284642 -1.100854,0.284642 -0.399632,0 -0.766679,-0.09516 -1.100854,-0.284642 C 13.666718,9.8108523 13.401713,9.5389593 13.205339,9.1875594 13.024293,8.8635724 12.930173,8.5148949 12.916049,8.144047 Z"
       id="path3738" />
  </g>
</svg>
