<?xml version="1.0" encoding="UTF-8" standalone="no"?>
<svg
   xmlns:dc="http://purl.org/dc/elements/1.1/"
   xmlns:cc="http://creativecommons.org/ns#"
   xmlns:rdf="http://www.w3.org/1999/02/22-rdf-syntax-ns#"
   xmlns:svg="http://www.w3.org/2000/svg"
   xmlns="http://www.w3.org/2000/svg"
   width="33.112839mm"
   height="13.032281mm"
   viewBox="0 0 5.2207909 13.027893"
   version="1.1"
   id="svg8">
  <defs
     id="defs2" />
  <metadata
     id="metadata5">
    <rdf:RDF>
      <cc:Work
         rdf:about="">
        <dc:format>image/svg+xml</dc:format>
        <dc:type
           rdf:resource="http://purl.org/dc/dcmitype/StillImage" />
        <dc:title></dc:title>
      </cc:Work>
    </rdf:RDF>
  </metadata>
  <path
     id="rect3724"
     d="m 7.3967979,10.128272 v 2.541108 l 0.00568,0.0046 -0.00259,-0.349215 c 0,0 0.3611672,0.04339 0.5610172,0.04339 0.4926499,0 0.9073626,-0.09342 1.2449826,-0.279475 0.3410601,-0.18259 0.5842189,-0.413182 0.7289089,-0.692231 0.1378604,-0.26585 0.2092614,-0.686641 0.2164514,-1.262031 0,-1.6e-5 2e-6,-0.0061 0,-0.0062 H 8.4268687 L 7.9717526,10.238822 7.5414329,10.128271 Z m 3.4818191,0 c -2.55e-4,3.44e-4 -0.0046,0.0077 -0.0046,0.0077 0,0.56178 -0.09058,0.989714 -0.200437,1.281144 -0.18948,0.51676 -0.518674,0.914791 -0.9872039,1.193841 -0.4550436,0.271017 -1.0002025,0.409087 -1.6339752,0.416888 H 19.16111 v -2.899622 z"
     style="opacity:1;fill:#0073C5;fill-opacity:1;stroke:none;stroke-width:4.71700001;stroke-linecap:round;stroke-linejoin:round;stroke-miterlimit:4;stroke-dasharray:none;stroke-dashoffset:0;stroke-opacity:1" />
  <path
     id="rect3726"
     d="m 8.1071096,5.0672359 c 0.348626,0.024487 0.6839925,0.1095469 0.9882374,0.257262 0.36518,0.17225 0.716224,0.4579101 1.053844,0.8575401 V 5.2056823 H 10.8781 L 10.875,8.1440482 h 1.302325 c -9.79e-4,-0.035376 -0.0021,-0.07061 -0.0021,-0.1064177 0,-0.7785899 0.258116,-1.4541873 0.774886,-2.0260673 0.563373,-0.6248301 1.274701,-0.9387573 2.132485,-0.9443273 z m 7.0209784,0 c 0.854346,0.00556 1.563455,0.3177679 2.126804,0.9391612 0.516761,0.57189 0.775402,1.2492035 0.775402,2.0312334 0,0.0357 -5.29e-4,0.071067 -0.0021,0.1064177 H 19.16106 V 5.0672359 Z M 8.0146398,5.7584337 c -0.2138656,0 -0.6169593,0.081443 -0.6178419,0.081621 v 2.3039931 h 2.7839051 c 0.002,-0.066653 0.0052,-0.1357993 0.0052,-0.1735744 0,-0.4237502 -0.09342,-0.8011195 -0.2794755,-1.1318495 C 9.7203535,6.5044544 9.4570704,6.2406544 9.1160103,6.0477243 8.7749402,5.8547946 8.4078962,5.7584337 8.0151564,5.7584337 Z m 7.0907202,0.015497 c -0.59945,0 -1.114483,0.2224984 -1.545122,0.666918 -0.430632,0.4444202 -0.646255,0.9818289 -0.646255,1.6122787 0,0.0305 5.29e-4,0.06072 0.0021,0.09092 h 4.378105 c 0.0011,-0.030218 0.0021,-0.060413 0.0021,-0.09092 0,-0.6304498 -0.216824,-1.1678585 -0.650904,-1.6122787 -0.430639,-0.4444196 -0.943956,-0.666918 -1.539954,-0.666918 z"
     style="opacity:1;fill:#0073C5;fill-opacity:1;stroke:none;stroke-width:4.71700001;stroke-linecap:round;stroke-linejoin:round;stroke-miterlimit:4;stroke-dasharray:none;stroke-dashoffset:0;stroke-opacity:1" />
  <rect
     transform="rotate(90)"
     style="opacity:1;fill:#0073C5;fill-opacity:1;stroke:none;stroke-width:4.71700001;stroke-linecap:round;stroke-linejoin:round;stroke-miterlimit:4;stroke-dasharray:none;stroke-dashoffset:0;stroke-opacity:1"
     id="rect3728"
     width="3.0768716"
     height="11.764509"
     x="-1.528189e-015"
     y="-19.161242" />
  <path
     d="m -6.5093791,4.6400212 -0.599447,0.45992 q -0.496093,-0.64595 -1.193725,-0.97668 -0.692464,-0.3359 -1.524455,-0.3359 -0.9095049,0 -1.6846509,0.43925 -0.775147,0.43408 -1.204061,1.17305 -0.423747,0.73381 -0.423747,1.65365 0,1.3901 0.950846,2.32027 0.956014,0.9301798 2.4081219,0.9301798 1.596802,0 2.671671,-1.2505698 l 0.599447,0.45475 q -0.568441,0.7234698 -1.421102,1.1213798 -0.847493,0.39274 -1.896525,0.39274 -1.9947099,0 -3.1470939,-1.3280798 -0.96635,-1.12138 -0.96635,-2.70785 0,-1.66915 1.167888,-2.80603 1.173055,-1.14205 2.9352209,-1.14205 1.064534,0 1.922363,0.42375 0.857829,0.41858 1.405599,1.17822 z"
     style="font-style:normal;font-variant:normal;font-weight:normal;font-stretch:normal;font-size:10.58333302px;line-height:1.25;font-family:'Century Gothic';-inkscape-font-specification:'Century Gothic, Normal';font-variant-ligatures:normal;font-variant-caps:normal;font-variant-numeric:normal;font-feature-settings:normal;text-align:start;letter-spacing:0px;word-spacing:0px;writing-mode:lr-tb;text-anchor:start;fill:#0073C5;fill-opacity:1;stroke:none;stroke-width:0.26458332"
     id="path3730" />
  <path
     d="m 0.49277687,5.2084612 v 5.6223998 h -0.713134 V 9.8645112 q -0.454753,0.5529398 -1.02319397,0.8319898 -0.563273,0.27905 -1.235066,0.27905 -1.193726,0 -2.041219,-0.863 -0.842326,-0.8681598 -0.842326,-2.1083898 0,-1.2144 0.852661,-2.0774 0.852661,-0.86299 2.051554,-0.86299 0.692464,0 1.25057,0.29455 0.56327297,0.29456 0.98701997,0.88367 v -1.03353 z m -2.89387997,0.55294 q -0.604614,0 -1.116211,0.29972 -0.511596,0.29456 -0.816487,0.83199 -0.299724,0.53744 -0.299724,1.13688 0,0.59428 0.304891,1.13689 0.304891,0.5426 0.816488,0.8474898 0.516764,0.29972 1.105876,0.29972 0.594278,0 1.126546,-0.29972 0.53226697,-0.2997198 0.81648697,-0.8113198 0.289388,-0.5116 0.289388,-1.15239 0,-0.97668 -0.645955,-1.63297 -0.64078797,-0.65629 -1.58129897,-0.65629 z"
     style="font-style:normal;font-variant:normal;font-weight:normal;font-stretch:normal;font-size:10.58333302px;line-height:1.25;font-family:'Century Gothic';-inkscape-font-specification:'Century Gothic, Normal';font-variant-ligatures:normal;font-variant-caps:normal;font-variant-numeric:normal;font-feature-settings:normal;text-align:start;letter-spacing:0px;word-spacing:0px;writing-mode:lr-tb;text-anchor:start;fill:#0073C5;fill-opacity:1;stroke:none;stroke-width:0.26458332"
     id="path3732" />
  <path
     d="m 1.8518669,5.2084612 h 0.738973 v 0.82166 q 0.330729,-0.48576 0.697632,-0.72347 0.366904,-0.24288 0.764814,-0.24288 0.29972,0 0.64079,0.1912 l -0.37724,0.60978 q -0.22738,-0.0982 -0.38241,-0.0982 -0.36173,0 -0.69763,0.29972 -0.335897,0.29456 -0.511597,0.91984 -0.134359,0.48059 -0.134359,1.94303 v 1.9016998 h -0.738973 z"
     style="font-style:normal;font-variant:normal;font-weight:normal;font-stretch:normal;font-size:10.58333302px;line-height:1.25;font-family:'Century Gothic';-inkscape-font-specification:'Century Gothic, Normal';font-variant-ligatures:normal;font-variant-caps:normal;font-variant-numeric:normal;font-feature-settings:normal;text-align:start;letter-spacing:0px;word-spacing:0px;writing-mode:lr-tb;text-anchor:start;fill:#0073C5;fill-opacity:1;stroke:none;stroke-width:0.26458332"
     id="path3734" />
  <path
     id="path3736"
     d="M 7.3976468,5.1051311 C 7.0868467,5.1658764 6.7680497,5.2902895 6.4767503,5.456745 6.0219971,5.7185718 5.6657884,6.0747805 5.4074084,6.5260871 5.1490311,6.973947 5.019449,7.4580096 5.019449,7.9782225 c 0,0.5202067 0.1244176,0.9973853 0.3724617,1.431472 0.2480466,0.43408 0.5990908,0.7804825 1.0538443,1.0388625 0.4547465,0.25494 0.9405347,0.382277 1.4573015,0.382277 0.440973,0 0.8579252,-0.0912 1.250665,-0.273793 0.3927402,-0.186033 0.7253695,-0.451552 0.9975365,-0.7960651 v 0.01085 c 8.7e-5,-0.003 9.78e-4,-0.00524 10e-4,-0.00827 0.0087,-0.5589602 0.03012,-1.5510723 0.03151,-1.6184774 l -0.001,-5.29e-4 c 4e-5,-6.083e-4 -0.002,-0.00193 -0.0021,-0.00259 -0.0329,0.5730628 -0.2329036,1.0429937 -0.6033781,1.4071922 -0.40308,0.3996332 -0.9370468,0.5997613 -1.6019468,0.5997613 -0.6580133,0 -1.1936993,-0.2018474 -1.6071126,-0.6049274 C 5.9548563,9.1409146 5.7483611,8.6310371 5.7483611,8.0143637 c 0,-0.40652 0.099802,-0.7838961 0.2996225,-1.1318494 0.1998133,-0.3514 0.475661,-0.6250053 0.8270612,-0.8213785 0.1682493,-0.09567 0.3432723,-0.1671278 0.5248558,-0.2169681 -8.5e-6,-6.3e-6 -0.00156,-0.00103 -0.00156,-0.00103 z M 5.0917716,11.275102 c 0.2032575,0.440973 0.4257582,0.775322 0.6669183,1.002702 0.2411531,0.23082 0.5526219,0.413226 0.9350284,0.547586 0.2206232,0.07879 0.4591859,0.132602 0.7113449,0.166342 l -0.00517,-0.663819 c 0,0 0.00508,-0.0035 0.00517,-0.0036 C 7.1433205,12.281364 6.9071816,12.209944 6.70405,12.102164 6.3664302,11.923017 6.0911055,11.647176 5.8775055,11.275102 Z"
     style="font-style:normal;font-variant:normal;font-weight:normal;font-stretch:normal;font-size:10.58333302px;line-height:1.25;font-family:'Century Gothic';-inkscape-font-specification:'Century Gothic, Normal';font-variant-ligatures:normal;font-variant-caps:normal;font-variant-numeric:normal;font-feature-settings:normal;text-align:start;letter-spacing:0px;word-spacing:0px;writing-mode:lr-tb;text-anchor:start;fill:#0073C5;fill-opacity:1;stroke:none;stroke-width:0.26458332" />
  <path
     id="path3738"
     d="m 12.176292,8.1440482 c 0.02434,0.7398375 0.293297,1.3917598 0.81208,1.9532278 0.547773,0.585667 1.252097,0.878204 2.11337,0.878204 0.857829,0 1.558715,-0.292537 2.103041,-0.878204 0.522062,-0.561468 0.792748,-1.2133903 0.817245,-1.9532278 h -0.735109 c -0.01412,0.3708442 -0.10772,0.7195283 -0.288772,1.0435124 -0.196368,0.3513999 -0.461376,0.6232929 -0.795551,0.8162124 -0.334178,0.18948 -0.701227,0.284642 -1.100854,0.284642 -0.399632,0 -0.766679,-0.09516 -1.100854,-0.284642 C 13.666718,9.8108535 13.401713,9.5389605 13.205339,9.1875606 13.024293,8.8635736 12.930173,8.5148961 12.916049,8.1440482 Z"
     style="font-style:normal;font-variant:normal;font-weight:normal;font-stretch:normal;font-size:10.58333302px;line-height:1.25;font-family:'Century Gothic';-inkscape-font-specification:'Century Gothic, Normal';font-variant-ligatures:normal;font-variant-caps:normal;font-variant-numeric:normal;font-feature-settings:normal;text-align:start;letter-spacing:0px;word-spacing:0px;writing-mode:lr-tb;text-anchor:start;fill:#0073C5;fill-opacity:1;stroke:none;stroke-width:0.26458332" />
</svg>
